<svg width="20" height="24" viewBox="0 0 20 24" fill="none" xmlns="http://www.w3.org/2000/svg">
<path fill-rule="evenodd" clip-rule="evenodd" d="M9.65028 0.0232502C9.4791 0.0551854 9.25359 0.133866 9.10452 0.21364C8.9023 0.321846 0.957429 5.08262 0.841313 5.16515C0.694556 5.26947 0.467234 5.50709 0.357919 5.67042C0.187546 5.92502 0.0711326 6.21705 0.0229033 6.51084C0.00268005 6.63402 4.60958e-05 7.22758 1.45286e-06 11.6721C-4.31901e-05 16.5517 0.000760332 16.6985 0.0284092 16.8504C0.106966 17.2823 0.30033 17.6553 0.606178 17.9649C0.678768 18.0384 0.784676 18.1315 0.841521 18.1717C0.948872 18.2477 8.92011 23.0249 9.1012 23.1217C9.23511 23.1933 9.39121 23.2524 9.55934 23.2953C9.74502 23.3426 10.2261 23.3467 10.4092 23.3024C10.5878 23.2593 10.7528 23.1992 10.8834 23.1296C11.0725 23.029 19.045 18.2526 19.1584 18.172C19.2153 18.1316 19.3212 18.0384 19.3938 17.9649C19.6997 17.6552 19.8855 17.297 19.9704 16.8529C19.9996 16.7003 20 16.6266 20 11.6707C20 6.78578 19.9992 6.63879 19.9715 6.48685C19.8936 6.05831 19.7043 5.68977 19.4056 5.38501C19.3267 5.3046 19.2156 5.20567 19.1586 5.16517C19.0419 5.08222 11.0962 0.32099 10.8954 0.213736C10.7363 0.128713 10.5285 0.0571198 10.3433 0.0235831C10.1705 -0.00771785 9.81712 -0.00789221 9.65028 0.0232502ZM10.5729 5.61945C11.6936 5.74603 12.6859 6.18115 13.5789 6.93762C13.8876 7.19915 14.5557 7.94916 14.515 7.98841C14.5075 7.99556 14.1131 8.24062 13.6384 8.53299C13.1637 8.82537 12.7051 9.10815 12.6193 9.16142L12.4632 9.25825L12.344 9.13343C11.8083 8.5728 11.1227 8.22429 10.3738 8.13199C10.1652 8.10627 9.63719 8.12011 9.44938 8.15622C8.76832 8.28715 8.18829 8.59573 7.70262 9.0855C7.17451 9.61807 6.83969 10.2886 6.7018 11.0899C6.67978 11.2179 6.67453 11.3294 6.67453 11.6686C6.67453 12.1251 6.6849 12.222 6.77292 12.5883C6.9367 13.2699 7.34478 13.9492 7.86296 14.4027C8.33245 14.8137 8.83527 15.059 9.46426 15.1841C9.66785 15.2246 10.3321 15.2246 10.5357 15.1841C11.2487 15.0423 11.8279 14.7319 12.3216 14.2269L12.4648 14.0805L13.4867 14.7112C14.0488 15.058 14.5129 15.3463 14.518 15.3518C14.5511 15.387 13.9276 16.0907 13.6309 16.3527C12.3543 17.4808 10.6854 17.9563 9.04015 17.6608C7.09813 17.3121 5.42675 15.8665 4.69702 13.9044C4.49291 13.3556 4.36643 12.792 4.31631 12.2078C4.29619 11.9732 4.29616 11.3645 4.31628 11.1295C4.41976 9.92047 4.85174 8.79164 5.57826 7.83181C5.73274 7.62772 6.11 7.21813 6.31006 7.0373C7.18911 6.24269 8.25621 5.75515 9.41218 5.61997C9.6638 5.59056 10.3145 5.59025 10.5729 5.61945ZM15.7143 9.639V10.1464H16.1905H16.6667V9.639V9.13159H17.1429H17.619V9.639V10.1464H18.0952H18.5714V10.6538V11.1612H18.0952H17.619V11.6686V12.1761H18.0952H18.5714V12.6835V13.1909H18.0952H17.619V13.6983V14.2057H17.1429H16.6667V13.6983V13.1909H16.1905H15.7143V13.6983V14.2057H15.2381H14.7619V13.6983V13.1909H14.2857H13.8095V12.6835V12.1761H14.2857H14.7619V11.6686V11.1612H14.2857H13.8095V10.6538V10.1464H14.2857H14.7619V9.639V9.13159H15.2381H15.7143V9.639ZM15.7143 11.6686V12.1761H16.1905H16.6667V11.6686V11.1612H16.1905H15.7143V11.6686Z" fill="#9B51E0"/>
</svg>
